<svg xmlns="http://www.w3.org/2000/svg" xmlns:xlink="http://www.w3.org/1999/xlink" viewBox="0 0 462.69 462.69"><defs><style>.a{fill:none;}.b{clip-path:url(#a);}.c{fill:#fff;}</style><clipPath id="a" transform="translate(0 0)"><rect class="a" width="462.69" height="462.69"/></clipPath></defs><title>icon</title><g class="b"><rect width="462.69" height="462.69"/><g class="b"><path class="c" d="M160,360.42h-94a3.59,3.59,0,0,1-3.57-3.57V106.61c0-4.53,2.71-5.71,6-2.61L160,189.8Z" transform="translate(0 0)"/><path class="c" d="M276.55,360.42h-94V202.92l97.54,91.43v62.5a3.56,3.56,0,0,1-3.56,3.57" transform="translate(0 0)"/><path class="c" d="M302.66,102.27h94a3.57,3.57,0,0,1,3.56,3.57V356.08c0,4.53-2.7,5.7-6,2.6l-91.54-85.8Z" transform="translate(0 0)"/><path class="c" d="M186.14,102.27h94v157.5l-97.54-91.44V105.84a3.57,3.57,0,0,1,3.57-3.57" transform="translate(0 0)"/></g></g></svg>