<?xml version="1.0" standalone="no"?>
<!DOCTYPE svg PUBLIC "-//W3C//DTD SVG 20010904//EN"
 "http://www.w3.org/TR/2001/REC-SVG-20010904/DTD/svg10.dtd">
<svg version="1.0" xmlns="http://www.w3.org/2000/svg"
 width="700.000000pt" height="700.000000pt" viewBox="0 0 700.000000 700.000000"
 preserveAspectRatio="xMidYMid meet">
<metadata>
Created by potrace 1.11, written by Peter Selinger 2001-2013
</metadata>
<g transform="translate(0.000000,700.000000) scale(0.100000,-0.100000)"
fill="#000000" stroke="none">
<path d="M0 3500 l0 -3500 3500 0 3500 0 0 3500 0 3500 -3500 0 -3500 0 0
-3500z m1163 1807 c84 -78 401 -376 705 -660 l552 -518 0 -1290 0 -1289 -727
2 -727 3 -13 25 c-17 33 -19 3773 -2 3833 18 66 42 55 212 -106z m3077 -1043
c0 -692 -4 -1184 -9 -1182 -5 2 -287 264 -627 583 -340 319 -669 627 -731 685
l-113 105 0 475 c0 414 2 478 16 498 l15 22 725 0 724 0 0 -1186z m1799 1172
c8 -10 10 -524 9 -1941 -3 -1819 -4 -1928 -20 -1939 -14 -8 -24 -7 -42 4 -13
8 -335 307 -715 663 l-691 649 0 1289 0 1289 724 0 c597 0 726 -2 735 -14z
m-2466 -2266 l667 -625 0 -475 c0 -414 -2 -478 -16 -498 l-15 -22 -725 0 -724
0 0 1191 0 1191 73 -69 c41 -37 374 -349 740 -693z"/>
</g>
</svg>
