<?xml version="1.0" encoding="utf-8"?>
<!-- Generator: Adobe Illustrator 23.0.6, SVG Export Plug-In . SVG Version: 6.00 Build 0)  -->
<svg version="1.2" baseProfile="tiny" id="Layer_1" xmlns="http://www.w3.org/2000/svg" xmlns:xlink="http://www.w3.org/1999/xlink"
	 x="0px" y="0px" viewBox="0 0 183 141" xml:space="preserve">
<path d="M53.78,139.01H4c-1.04,0-1.89-0.85-1.89-1.89V4.54c0-2.4,1.43-3.02,3.18-1.38l48.5,45.46V139.01z"/>
<path d="M115.52,139.01H65.73V55.57l51.68,48.44v33.11C117.41,138.17,116.56,139.01,115.52,139.01"/>
<path d="M129.36,2.24h49.79c1.04,0,1.89,0.85,1.89,1.89v132.59c0,2.4-1.43,3.02-3.18,1.38l-48.5-45.46V2.24z"/>
<path d="M67.62,2.24h49.79v83.44L65.73,37.24V4.13C65.73,3.09,66.58,2.24,67.62,2.24"/>
</svg>
